<svg xmlns="http://www.w3.org/2000/svg" width="1440" height="8120" viewBox="0 0 1440 8120"><title>Strecker developer profile</title><defs><linearGradient id="scan" x1="0" y1="0" x2="0" y2="1"><stop offset="0" stop-color="#76B900" stop-opacity="0"/><stop offset=".3" stop-color="#76B900" stop-opacity=".018"/><stop offset=".5" stop-color="#76B900" stop-opacity=".15"/><stop offset=".7" stop-color="#76B900" stop-opacity=".018"/><stop offset="1" stop-color="#76B900" stop-opacity="0"/></linearGradient><filter id="glow" x="-80%" y="-80%" width="260%" height="260%"><feGaussianBlur stdDeviation="8" result="b"/><feMerge><feMergeNode in="b"/><feMergeNode in="SourceGraphic"/></feMerge></filter><style>.sans{font-family:Inter,"Segoe UI",Arial,sans-serif}.mono{font-family:ui-monospace,"Cascadia Mono","Cascadia Code",Consolas,monospace}.fg{fill:#F4F6F8}.muted{fill:#A5AFB9}.dim{fill:#6D7883}.green{fill:#76B900}.cyan{fill:#00D4FF}.pink{fill:#FF6FAE}.rule{stroke:#fff;stroke-opacity:.095;stroke-width:1.6}.term{fill:none;stroke:#5A5A5A;stroke-width:2.8}.top{fill:#2D2D2D}.tab{fill:#0A0A0A}.tabt{font-size:20px;font-weight:600}.ico{font-size:25px}.ps{font-size:19px;font-weight:700}.hero{font-size:72px;font-weight:720}.sub{font-size:21px;letter-spacing:.1em}.lead{font-size:24px}.tt{font-size:16px;letter-spacing:.16em;font-weight:600}.th{font-size:27px;font-weight:650}.pr{font-size:20px;font-weight:650}.code{font-size:18px}.body{font-size:20px}.ml{font-size:15px;letter-spacing:.1em}.mv{font-size:20px;font-weight:620}.mb{font-size:25px;font-weight:680}.foot{font-size:16px;letter-spacing:.12em}.as{font-size:13px}.at{font-size:16px}.am{font-size:23px;font-weight:700}</style><g id="bar"><rect width="1216" height="64" rx="14" class="top"/><rect width="246" height="64" rx="14" class="tab"/><rect y="48" width="246" height="16" class="tab"/><text x="34" y="40" class="sans fg tabt">strecker</text><text x="214" y="41" class="sans fg ico">×</text><line x1="246" y1="10" x2="246" y2="54" stroke="#444"/><text x="274" y="42" class="sans fg ico">＋</text><line x1="316" y1="10" x2="316" y2="54" stroke="#444"/><text x="338" y="39" class="sans fg ico">⌄</text><text x="1034" y="41" class="sans fg ico">−</text><text x="1100" y="39" class="sans fg ico">□</text><text x="1170" y="41" class="sans fg ico">×</text></g><clipPath id="t1"><rect x="340" y="138" width="0" height="110"><animate attributeName="width" from="0" to="460" begin="1.67s" dur="0.71s" fill="freeze"/></rect></clipPath><clipPath id="t2"><rect x="340" y="274" width="0" height="43"><animate attributeName="width" from="0" to="980" begin="2.48s" dur="1.05s" fill="freeze"/></rect></clipPath><clipPath id="t3"><rect x="340" y="331" width="0" height="43"><animate attributeName="width" from="0" to="850" begin="3.64s" dur="0.85s" fill="freeze"/></rect></clipPath><clipPath id="t4"><rect x="340" y="421" width="0" height="43"><animate attributeName="width" from="0" to="170" begin="4.59s" dur="0.48s" fill="freeze"/></rect></clipPath><clipPath id="t5"><rect x="372" y="469" width="0" height="43"><animate attributeName="width" from="0" to="820" begin="5.13s" dur="0.99s" fill="freeze"/></rect></clipPath><clipPath id="t6"><rect x="340" y="537" width="0" height="43"><animate attributeName="width" from="0" to="260" begin="6.22s" dur="0.54s" fill="freeze"/></rect></clipPath><clipPath id="t7"><rect x="372" y="585" width="0" height="43"><animate attributeName="width" from="0" to="620" begin="6.83s" dur="0.78s" fill="freeze"/></rect></clipPath><clipPath id="o1"><rect x="112" y="840" width="1216" height="0"><animate attributeName="height" from="0" to="840" begin="7.85s" dur="0.44s" fill="freeze"/></rect></clipPath><clipPath id="t8"><rect x="142" y="927" width="0" height="43"><animate attributeName="width" from="0" to="230" begin="8.43s" dur="0.68s" fill="freeze"/></rect></clipPath><clipPath id="t9"><rect x="142" y="983" width="0" height="43"><animate attributeName="width" from="0" to="210" begin="9.22s" dur="0.54s" fill="freeze"/></rect></clipPath><clipPath id="t10"><rect x="142" y="1041" width="0" height="43"><animate attributeName="width" from="0" to="260" begin="9.87s" dur="0.68s" fill="freeze"/></rect></clipPath><clipPath id="t11"><rect x="142" y="1095" width="0" height="43"><animate attributeName="width" from="0" to="1020" begin="10.66s" dur="1.05s" fill="freeze"/></rect></clipPath><clipPath id="t12"><rect x="142" y="1195" width="0" height="43"><animate attributeName="width" from="0" to="170" begin="11.83s" dur="0.51s" fill="freeze"/></rect></clipPath><clipPath id="t13"><rect x="174" y="1241" width="0" height="43"><animate attributeName="width" from="0" to="650" begin="12.44s" dur="0.82s" fill="freeze"/></rect></clipPath><clipPath id="t14"><rect x="142" y="1323" width="0" height="43"><animate attributeName="width" from="0" to="200" begin="13.37s" dur="0.54s" fill="freeze"/></rect></clipPath><clipPath id="t15"><rect x="174" y="1369" width="0" height="43"><animate attributeName="width" from="0" to="810" begin="14.02s" dur="0.92s" fill="freeze"/></rect></clipPath><clipPath id="t16"><rect x="142" y="1529" width="0" height="43"><animate attributeName="width" from="0" to="110" begin="15.05s" dur="0.37s" fill="freeze"/></rect></clipPath><clipPath id="t17"><rect x="350" y="1529" width="0" height="43"><animate attributeName="width" from="0" to="180" begin="15.33s" dur="0.37s" fill="freeze"/></rect></clipPath><clipPath id="t18"><rect x="760" y="1529" width="0" height="43"><animate attributeName="width" from="0" to="55" begin="15.62s" dur="0.37s" fill="freeze"/></rect></clipPath><clipPath id="t19"><rect x="890" y="1529" width="0" height="43"><animate attributeName="width" from="0" to="220" begin="15.91s" dur="0.37s" fill="freeze"/></rect></clipPath><clipPath id="o2"><rect x="112" y="1830" width="1216" height="0"><animate attributeName="height" from="0" to="1020" begin="16.63s" dur="0.44s" fill="freeze"/></rect></clipPath><clipPath id="t20"><rect x="142" y="1917" width="0" height="43"><animate attributeName="width" from="0" to="230" begin="17.21s" dur="0.68s" fill="freeze"/></rect></clipPath><clipPath id="t21"><rect x="142" y="1973" width="0" height="43"><animate attributeName="width" from="0" to="180" begin="18.00s" dur="0.54s" fill="freeze"/></rect></clipPath><clipPath id="t22"><rect x="142" y="2031" width="0" height="43"><animate attributeName="width" from="0" to="400" begin="18.65s" dur="0.75s" fill="freeze"/></rect></clipPath><clipPath id="t23"><rect x="142" y="2085" width="0" height="43"><animate attributeName="width" from="0" to="780" begin="19.51s" dur="0.95s" fill="freeze"/></rect></clipPath><clipPath id="t24"><rect x="142" y="2185" width="0" height="43"><animate attributeName="width" from="0" to="220" begin="20.57s" dur="0.54s" fill="freeze"/></rect></clipPath><clipPath id="t25"><rect x="174" y="2231" width="0" height="43"><animate attributeName="width" from="0" to="670" begin="21.22s" dur="0.85s" fill="freeze"/></rect></clipPath><clipPath id="t26"><rect x="174" y="2275" width="0" height="43"><animate attributeName="width" from="0" to="970" begin="22.18s" dur="1.02s" fill="freeze"/></rect></clipPath><clipPath id="t27"><rect x="142" y="2383" width="0" height="43"><animate attributeName="width" from="0" to="205" begin="23.31s" dur="0.54s" fill="freeze"/></rect></clipPath><clipPath id="t28"><rect x="174" y="2429" width="0" height="43"><animate attributeName="width" from="0" to="690" begin="23.96s" dur="0.82s" fill="freeze"/></rect></clipPath><clipPath id="t29"><rect x="174" y="2473" width="0" height="43"><animate attributeName="width" from="0" to="970" begin="24.89s" dur="1.02s" fill="freeze"/></rect></clipPath><clipPath id="t30"><rect x="142" y="2581" width="0" height="43"><animate attributeName="width" from="0" to="260" begin="26.02s" dur="0.61s" fill="freeze"/></rect></clipPath><clipPath id="t31"><rect x="174" y="2627" width="0" height="43"><animate attributeName="width" from="0" to="650" begin="26.74s" dur="0.82s" fill="freeze"/></rect></clipPath><clipPath id="t32"><rect x="174" y="2671" width="0" height="43"><animate attributeName="width" from="0" to="850" begin="27.66s" dur="0.95s" fill="freeze"/></rect></clipPath><clipPath id="o3"><rect x="112" y="3030" width="1216" height="0"><animate attributeName="height" from="0" to="980" begin="29.17s" dur="0.44s" fill="freeze"/></rect></clipPath><clipPath id="t33"><rect x="142" y="3117" width="0" height="43"><animate attributeName="width" from="0" to="230" begin="29.74s" dur="0.68s" fill="freeze"/></rect></clipPath><clipPath id="t34"><rect x="142" y="3173" width="0" height="43"><animate attributeName="width" from="0" to="210" begin="30.53s" dur="0.54s" fill="freeze"/></rect></clipPath><clipPath id="t35"><rect x="142" y="3231" width="0" height="43"><animate attributeName="width" from="0" to="300" begin="31.18s" dur="0.68s" fill="freeze"/></rect></clipPath><clipPath id="t36"><rect x="142" y="3285" width="0" height="43"><animate attributeName="width" from="0" to="880" begin="31.97s" dur="0.95s" fill="freeze"/></rect></clipPath><clipPath id="t37"><rect x="142" y="3434" width="0" height="43"><animate attributeName="width" from="0" to="180" begin="33.03s" dur="0.41s" fill="freeze"/></rect></clipPath><clipPath id="t38"><rect x="410" y="3434" width="0" height="43"><animate attributeName="width" from="0" to="620" begin="33.34s" dur="0.65s" fill="freeze"/></rect></clipPath><clipPath id="t39"><rect x="142" y="3514" width="0" height="43"><animate attributeName="width" from="0" to="180" begin="33.83s" dur="0.41s" fill="freeze"/></rect></clipPath><clipPath id="t40"><rect x="410" y="3514" width="0" height="43"><animate attributeName="width" from="0" to="620" begin="34.14s" dur="0.65s" fill="freeze"/></rect></clipPath><clipPath id="t41"><rect x="142" y="3594" width="0" height="43"><animate attributeName="width" from="0" to="180" begin="34.63s" dur="0.41s" fill="freeze"/></rect></clipPath><clipPath id="t42"><rect x="410" y="3594" width="0" height="43"><animate attributeName="width" from="0" to="620" begin="34.93s" dur="0.65s" fill="freeze"/></rect></clipPath><clipPath id="t43"><rect x="142" y="3674" width="0" height="43"><animate attributeName="width" from="0" to="180" begin="35.42s" dur="0.41s" fill="freeze"/></rect></clipPath><clipPath id="t44"><rect x="410" y="3674" width="0" height="43"><animate attributeName="width" from="0" to="620" begin="35.73s" dur="0.65s" fill="freeze"/></rect></clipPath><clipPath id="t45"><rect x="142" y="3754" width="0" height="43"><animate attributeName="width" from="0" to="180" begin="36.22s" dur="0.41s" fill="freeze"/></rect></clipPath><clipPath id="t46"><rect x="410" y="3754" width="0" height="43"><animate attributeName="width" from="0" to="620" begin="36.52s" dur="0.65s" fill="freeze"/></rect></clipPath><clipPath id="t47"><rect x="142" y="3834" width="0" height="43"><animate attributeName="width" from="0" to="180" begin="37.01s" dur="0.41s" fill="freeze"/></rect></clipPath><clipPath id="t48"><rect x="410" y="3834" width="0" height="43"><animate attributeName="width" from="0" to="620" begin="37.32s" dur="0.65s" fill="freeze"/></rect></clipPath><clipPath id="o4"><rect x="112" y="4160" width="1216" height="0"><animate attributeName="height" from="0" to="850" begin="38.25s" dur="0.44s" fill="freeze"/></rect></clipPath><clipPath id="t49"><rect x="142" y="4247" width="0" height="43"><animate attributeName="width" from="0" to="230" begin="38.83s" dur="0.68s" fill="freeze"/></rect></clipPath><clipPath id="t50"><rect x="142" y="4303" width="0" height="43"><animate attributeName="width" from="0" to="210" begin="39.62s" dur="0.54s" fill="freeze"/></rect></clipPath><clipPath id="t51"><rect x="142" y="4361" width="0" height="43"><animate attributeName="width" from="0" to="340" begin="40.27s" dur="0.68s" fill="freeze"/></rect></clipPath><clipPath id="t52"><rect x="142" y="4415" width="0" height="43"><animate attributeName="width" from="0" to="780" begin="41.06s" dur="0.92s" fill="freeze"/></rect></clipPath><clipPath id="t53"><rect x="142" y="4539" width="0" height="43"><animate attributeName="width" from="0" to="190" begin="42.09s" dur="0.51s" fill="freeze"/></rect></clipPath><clipPath id="t54"><rect x="390" y="4539" width="0" height="43"><animate attributeName="width" from="0" to="650" begin="42.48s" dur="0.68s" fill="freeze"/></rect></clipPath><clipPath id="t55"><rect x="142" y="4629" width="0" height="43"><animate attributeName="width" from="0" to="190" begin="43.01s" dur="0.51s" fill="freeze"/></rect></clipPath><clipPath id="t56"><rect x="390" y="4629" width="0" height="43"><animate attributeName="width" from="0" to="650" begin="43.40s" dur="0.68s" fill="freeze"/></rect></clipPath><clipPath id="t57"><rect x="142" y="4719" width="0" height="43"><animate attributeName="width" from="0" to="190" begin="43.93s" dur="0.51s" fill="freeze"/></rect></clipPath><clipPath id="t58"><rect x="390" y="4719" width="0" height="43"><animate attributeName="width" from="0" to="650" begin="44.33s" dur="0.68s" fill="freeze"/></rect></clipPath><clipPath id="t59"><rect x="142" y="4809" width="0" height="43"><animate attributeName="width" from="0" to="190" begin="44.86s" dur="0.51s" fill="freeze"/></rect></clipPath><clipPath id="t60"><rect x="390" y="4809" width="0" height="43"><animate attributeName="width" from="0" to="650" begin="45.25s" dur="0.68s" fill="freeze"/></rect></clipPath><clipPath id="o5"><rect x="112" y="5170" width="1216" height="0"><animate attributeName="height" from="0" to="1235" begin="46.23s" dur="0.44s" fill="freeze"/></rect></clipPath><clipPath id="t61"><rect x="142" y="5257" width="0" height="43"><animate attributeName="width" from="0" to="230" begin="46.80s" dur="0.68s" fill="freeze"/></rect></clipPath><clipPath id="t62"><rect x="142" y="5313" width="0" height="43"><animate attributeName="width" from="0" to="420" begin="47.59s" dur="0.65s" fill="freeze"/></rect></clipPath><clipPath id="t63"><rect x="142" y="5371" width="0" height="43"><animate attributeName="width" from="0" to="340" begin="48.35s" dur="0.68s" fill="freeze"/></rect></clipPath><clipPath id="t64"><rect x="142" y="5425" width="0" height="43"><animate attributeName="width" from="0" to="860" begin="49.14s" dur="0.95s" fill="freeze"/></rect></clipPath><clipPath id="t65"><rect x="1038" y="5257" width="0" height="43"><animate attributeName="width" from="0" to="260" begin="50.20s" dur="0.61s" fill="freeze"/></rect></clipPath><clipPath id="t66"><rect x="142" y="5584" width="0" height="43"><animate attributeName="width" from="0" to="180" begin="50.89s" dur="0.37s" fill="freeze"/></rect></clipPath><clipPath id="t67"><rect x="142" y="5639" width="0" height="43"><animate attributeName="width" from="0" to="250" begin="51.18s" dur="0.51s" fill="freeze"/></rect></clipPath><clipPath id="t68"><rect x="470" y="5584" width="0" height="43"><animate attributeName="width" from="0" to="180" begin="51.57s" dur="0.37s" fill="freeze"/></rect></clipPath><clipPath id="t69"><rect x="470" y="5639" width="0" height="43"><animate attributeName="width" from="0" to="250" begin="51.86s" dur="0.51s" fill="freeze"/></rect></clipPath><clipPath id="t70"><rect x="730" y="5584" width="0" height="43"><animate attributeName="width" from="0" to="180" begin="52.25s" dur="0.37s" fill="freeze"/></rect></clipPath><clipPath id="t71"><rect x="730" y="5639" width="0" height="43"><animate attributeName="width" from="0" to="250" begin="52.54s" dur="0.51s" fill="freeze"/></rect></clipPath><clipPath id="t72"><rect x="1010" y="5584" width="0" height="43"><animate attributeName="width" from="0" to="180" begin="52.93s" dur="0.37s" fill="freeze"/></rect></clipPath><clipPath id="t73"><rect x="1010" y="5639" width="0" height="43"><animate attributeName="width" from="0" to="250" begin="53.22s" dur="0.51s" fill="freeze"/></rect></clipPath><clipPath id="t74"><rect x="142" y="5789" width="0" height="43"><animate attributeName="width" from="0" to="220" begin="53.61s" dur="0.41s" fill="freeze"/></rect></clipPath><clipPath id="t75"><rect x="442" y="5789" width="0" height="43"><animate attributeName="width" from="0" to="260" begin="53.92s" dur="0.54s" fill="freeze"/></rect></clipPath><clipPath id="t76"><rect x="730" y="5789" width="0" height="43"><animate attributeName="width" from="0" to="220" begin="54.34s" dur="0.41s" fill="freeze"/></rect></clipPath><clipPath id="t77"><rect x="1030" y="5789" width="0" height="43"><animate attributeName="width" from="0" to="260" begin="54.64s" dur="0.54s" fill="freeze"/></rect></clipPath><clipPath id="t78"><rect x="142" y="5929" width="0" height="43"><animate attributeName="width" from="0" to="320" begin="55.07s" dur="0.61s" fill="freeze"/></rect></clipPath><clipPath id="t79"><rect x="174" y="5981" width="0" height="43"><animate attributeName="width" from="0" to="900" begin="55.78s" dur="0.92s" fill="freeze"/></rect></clipPath><clipPath id="t80"><rect x="174" y="6029" width="0" height="43"><animate attributeName="width" from="0" to="330" begin="56.81s" dur="0.58s" fill="freeze"/></rect></clipPath><clipPath id="t81"><rect x="142" y="6199" width="0" height="43"><animate attributeName="width" from="0" to="120" begin="57.49s" dur="0.37s" fill="freeze"/></rect></clipPath><clipPath id="t82"><rect x="390" y="6199" width="0" height="43"><animate attributeName="width" from="0" to="520" begin="57.78s" dur="0.68s" fill="freeze"/></rect></clipPath><clipPath id="t83"><rect x="142" y="6299" width="0" height="43"><animate attributeName="width" from="0" to="1040" begin="58.58s" dur="1.02s" fill="freeze"/></rect></clipPath><clipPath id="o6"><rect x="112" y="6570" width="1216" height="0"><animate attributeName="height" from="0" to="780" begin="60.68s" dur="0.54s" fill="freeze"/></rect></clipPath><clipPath id="o7"><rect x="112" y="7420" width="1216" height="0"><animate attributeName="height" from="0" to="500" begin="66.39s" dur="0.44s" fill="freeze"/></rect></clipPath><clipPath id="t84"><rect x="142" y="7507" width="0" height="43"><animate attributeName="width" from="0" to="230" begin="66.97s" dur="0.68s" fill="freeze"/></rect></clipPath><clipPath id="t85"><rect x="142" y="7585" width="0" height="43"><animate attributeName="width" from="0" to="40" begin="67.77s" dur="0.31s" fill="freeze"/></rect></clipPath></defs><rect width="1440" height="8120" rx="34" fill="#000"/><rect x="2" y="2" width="1436" height="8116" rx="32" fill="none" stroke="#76B900" stroke-opacity=".1" stroke-width="2"/><g id="profile-scans"><rect y="-620" width="1440" height="620" fill="url(#scan)"><animate attributeName="y" from="-620" to="8740" dur="24s" begin="0s" repeatCount="indefinite"/></rect><rect y="-620" width="1440" height="620" fill="url(#scan)"><animate attributeName="y" from="-620" to="8740" dur="24s" begin="-12s" repeatCount="indefinite"/></rect></g><g transform="translate(100.0 93.0) scale(0.23434) translate(-136 -293)"><path d="M406.1 526.3L406.2 381.1L426.9 381.3L447.5 381.4L487 403.9C508.7 416.3 528.1 427.4 530 428.6C531.9 429.9 550.4 440.4 571 452C591.6 463.7 612.7 475.6 617.8 478.4L627 483.7L631.8 481.3C634.4 479.9 647.5 472.4 661 464.6C674.5 456.8 690 448 695.5 445C701 442 706.6 438.8 708 437.8C709.4 436.9 712.8 435 715.5 433.6C718.3 432.1 730.9 424.9 743.5 417.5C756.2 410.1 775.7 398.9 787 392.6L807.5 381.1L827.7 381.3L848 381.5L848.2 384C848.5 387.1 848.9 582.7 848.7 645.5L848.5 692.6L856.5 689.7C866.9 685.9 905.9 668.7 913.5 664.5C916.8 662.7 922 660.1 925 658.6C928 657.2 937.9 651.4 947 645.8C1009.4 607.4 1063 558.4 1116 491.5C1121.2 484.9 1125.6 480 1125.7 480.5C1125.8 481.1 1124.1 488 1121.9 496C1105.4 556.6 1076.3 629.4 1052.2 670.9C1047.4 679 1044.5 683 1042 684.5C1034.1 689.5 1001.2 705.4 985 712.1C975.4 716.1 966.2 720 964.5 720.8C962.9 721.6 958.9 723.2 955.7 724.4C952.5 725.6 950.2 726.6 950.7 726.8C951.1 727 969.5 726.3 991.4 725.3L1031.4 723.5L1021.2 736.5C1005.5 756.5 958.8 808.7 954.5 811.1C952.1 812.4 927.8 817.9 909.5 821.2C875 827.5 842.9 831.4 798.5 834.5C785.9 835.4 774.1 836.5 772.4 837C769.4 837.8 769.8 838.1 781.9 843.3C804.9 853.3 832 862.4 865 871C877.4 874.2 889.7 877.3 892.4 877.8L897.3 878.7L887.4 886.3C848.6 915.9 788.3 946.3 727 967.2C706.6 974.1 645.4 992 637 993.4C631.2 994.4 605.1 986.1 559 968.7C544.4 963.1 525.5 955.5 517 951.7C498.3 943.3 470.1 928.7 460.3 922.3L453 917.5L468.8 911.8C487.4 905.2 506.3 897.5 518 891.9C528.4 886.9 544.3 878.1 545.2 876.9C545.6 876.4 533.9 877.1 519.2 878.4C475.4 882.5 445.2 884 413 883.7L396.5 883.5L384.5 874.8C362.7 858.8 332.6 831.8 319 816L312.5 808.5L331.5 809.1C352.8 809.8 381.4 809.2 380.3 808.1C379.8 807.7 374.6 805.2 368.5 802.5C312 777.7 254.7 743.6 242.8 727.7C219.4 696.5 192.3 648 172.7 602C160.7 573.9 147.3 538 145.9 529.8C145.5 527.6 148.8 530.3 163.4 544.1C186.2 565.4 194.3 572.3 216.5 589.1C245 610.6 280.6 634.4 296.5 642.5C299.3 643.9 305.8 647.5 311 650.5C331.2 662.1 377.5 684.3 397 691.9L405.5 695.2L405.7 683.3C405.9 676.8 406 606.2 406.1 526.3ZM583.7 711.3L438.9 711.5L453.2 718.8C476 730.5 494.4 741.3 511.5 753C520.3 759 528.9 765.2 530.7 766.7C532.4 768.3 535.4 770.5 537.2 771.8C539 773.1 544.8 777.7 550 782.1C568.5 797.8 587.2 817.8 599.8 835.4L606.9 845.4L611.7 841.8C632.6 826.1 657.9 820.9 679.5 827.9C698.2 833.9 711.6 849.4 715.9 870L716.9 874.5L718.8 869.5C732 836.1 732.1 798.1 719.1 777.5C707.1 758.5 688.5 747.8 652.8 739.6C638.2 736.2 638.1 736.2 641.8 735C652.8 731.5 673 728.4 719 723.3C742.4 720.7 791.1 713.6 795.3 712.1C797.8 711.2 749.1 711.1 583.7 711.3ZM572.9 559.5C543 576.4 516.9 591.2 515 592.4C513.1 593.6 506.3 597.4 500 600.9C493.7 604.3 487.1 608.1 485.4 609.3L482.3 611.5L501.4 611.7C511.9 611.8 577.5 611.9 647.2 611.8L773.9 611.7L729.7 586.7C705.4 573 672.4 554.3 656.4 545.3L627.3 528.9L572.9 559.5ZM736.7 467.3C678.9 499.4 666.7 506.5 668 507.5C670 509 752.3 556.3 782.5 573.2L806.5 586.7L806.7 581.1C806.8 578 806.9 542.4 806.9 501.9L806.9 428.3L736.7 467.3ZM497.9 558.8C499.3 557.9 520.3 545.8 544.5 532L588.5 506.8L573 497.9C564.5 493.1 532.8 475.5 502.7 458.8L447.9 428.5L448 507.7L448 586.8L458.3 581.3C463.9 578.2 472.4 573.4 477.1 570.6C481.8 567.8 487.9 564.4 490.5 563C493.2 561.6 496.5 559.8 497.9 558.8ZM532.4 636.4C523.1 636.5 521.4 636.7 521.6 638C521.7 638.8 522.8 639.7 524 640C526.3 640.5 527.3 641.3 527.8 642.6C528 643.1 528.1 652.7 528.1 664C528 685.4 527.7 686.8 523.5 687.5C522.4 687.7 521.6 688.5 521.7 689.2C521.9 690.2 524.7 690.6 532.3 690.7C537.9 690.8 542.8 690.6 543.2 690.2C544.3 689.1 543.6 687.9 541.5 687.3C537.9 686.3 537.3 684.6 537 676C536.8 667.6 536.9 667.5 539.2 667.6C540.4 667.7 542 668.2 542.5 668.7C544 670 547.4 675.1 549.8 679.5C554.2 687.9 558.2 690.9 565 690.9C569.7 690.9 570.7 689 567 686.9C564.6 685.6 563.4 684 557.4 674.5L551.7 665.5L554.7 663C562.6 656.5 563.5 647.1 557 640.7C553.4 637.1 549.2 636.4 532.4 636.4ZM797 636.5C791.8 636.6 787.3 637 787.1 637.5C786.6 638.9 787.3 639.8 789 640C790.7 640.3 791.8 641.1 792.3 642.5C793.1 644.7 792.4 684.6 791.5 685.6C790.9 686.2 789.6 687 788.5 687.5C787.4 688 786.5 688.9 786.5 689.5C786.5 690.4 789.3 690.7 796.5 690.6C807 690.4 810.7 689.3 806.1 687.8C804.7 687.3 803.1 686.3 802.6 685.7C802.2 685 801.7 680.6 801.6 675.9L801.5 667.4L804 667.6C805.4 667.7 806.9 668.2 807.3 668.7C807.7 669.1 810.4 673.3 813.3 678C816.1 682.7 819.4 687.3 820.5 688.2C823.3 690.7 824 690.9 829.1 690.9C832.5 690.9 833.6 690.6 833.6 689.5C833.5 688.6 832.8 687.7 832 687.3C829.5 686.2 827.6 683.9 821.5 674.3L815.6 665.1L819.1 662.4C821 660.9 823 659 823.7 658.1C828.2 652.1 825.4 642.6 818 638.6C815 637 809.4 636.4 797 636.5ZM691.4 636.6C682.8 636.4 680.4 636.7 679.8 637.8C679.3 638.8 679.8 639.5 681.8 639.9C683.3 640.3 684.8 641 685.2 641.6C686.2 642.8 686.1 684.2 685.1 685.5C684.7 686.1 683.5 686.8 682.4 687.1C680.4 687.8 679.5 689 680.1 690.2C680.3 690.5 685.2 690.9 690.9 690.9C699.8 690.9 701.4 690.7 701.8 689.3C702.1 688.1 701.5 687.5 699.9 687.2C695.4 686.4 695.1 685.7 695.3 675L695.5 664.7L699.7 669.1C701.9 671.5 705.3 675.8 707.1 678.5C710.9 684.1 714.8 688.7 717 689.9C718.9 691 729.5 690.6 729.7 689.4C729.8 688.9 728.9 688.1 727.7 687.5C724.6 686.2 722.9 684.4 715.6 675.5C706.2 664 703.3 659.6 704.1 658.5C704.4 658 708.1 654.3 712.1 650.3C719 643.6 723.4 640.5 727.2 639.6C728.1 639.4 728.8 638.8 728.7 638.3C728.5 637 724.1 636.4 715.4 636.4C709 636.3 708.3 636.5 708.9 638.1C709.2 639.1 710.3 640.1 711.4 640.3C713.9 640.9 713 642.2 703.1 653.2L695.2 661.9L695.3 651.7C695.4 646.1 695.9 641.2 696.5 640.7C697 640.3 698.4 639.8 699.5 639.6C700.6 639.4 701.7 638.7 701.9 638C702.1 637.1 699.5 636.7 691.4 636.6ZM591 636.4C578.6 636.5 575.5 636.8 575.5 637.9C575.6 638.6 576.7 639.6 578 640.1C579.4 640.6 580.8 641.5 581.1 642.2C581.9 643.8 581.9 683.1 581.1 684.5C580.4 685.8 579.1 686.8 576.9 688C574.8 689.1 575.9 690.5 579 690.8C584.8 691.3 613.6 690.8 614 690.2C614.3 689.8 615.3 686.6 616.1 683.1C617.7 676.8 617.7 676.6 615.8 676.4C614.5 676.3 613.1 677.6 611.4 680.4C607.6 686.7 606.9 687 598 686.8C595.5 686.7 593 686.2 592.3 685.6C591.6 684.9 591.1 681 591.1 675L591.2 665.5L595.8 665.4C602.4 665.4 603.1 665.7 604.7 669.9C605.3 671.4 606.2 672.1 607.2 671.8C608.5 671.4 608.8 669.8 608.7 663.4C608.6 659.1 608.4 655.2 608.1 654.9C607 653.7 605.5 654.4 604.7 656.5C603.5 659.5 602 660.2 596.2 660.6L591 661L591 650.9L591 640.8L596.8 640.9C599.9 640.9 603 641 603.5 641.1C605.1 641.5 607.7 644.3 609 647C609.7 648.4 610.9 649.4 611.6 649.4C612.6 649.3 613 647.5 613 642.9L613 636.7L609.8 636.4C608 636.3 599.5 636.3 591 636.4ZM754 636.5C745.5 636.6 738.2 636.9 737.8 637.1C736.6 637.8 737.5 639.1 739.5 639.7C740.6 640 741.9 640.7 742.3 641.4C743.2 642.6 743.7 681.5 742.9 684C742.3 685.8 741.1 686.8 739 687.3C737.3 687.7 736.3 689.2 737 690.1C737.7 690.9 774.4 691 775.2 690.2C775.6 689.8 776.7 686.7 777.5 683.2C778.9 677.3 778.9 676.8 777.3 676.3C776.1 675.8 774.8 677 772.5 680.6C770.7 683.3 768.9 685.7 768.4 685.9C766.5 686.9 754.4 686.5 753.5 685.6C753 685 752.5 680.2 752.5 675L752.5 665.5L756 665.3C763.1 664.9 765 665.6 766.4 669.5C766.9 670.6 767.9 671.5 768.7 671.6C769.9 671.6 770.1 670 770 663.1C769.9 656.5 769.6 654.5 768.5 654.5C767.7 654.5 766.8 655.4 766.3 656.5C765.1 659.7 762.9 660.8 757.5 660.9L752.5 661.1L752.4 650.9L752.4 640.7L758.9 640.9C766.2 641.1 768.2 642.1 770 646.5C771.2 649.4 772.8 650.4 774.1 649.1C774.5 648.8 774.6 645.9 774.5 642.6C774.3 637.2 774.1 636.8 771.9 636.5C770.6 636.4 762.5 636.4 754 636.5ZM653 635.3C636.9 635.7 625.2 647.8 625.2 664C625.1 679.7 633 689.3 648 691.5C650.5 691.9 653.6 692.1 655 692C658.5 691.8 667.4 689.3 668.2 688.3C668.6 687.9 669.7 684.8 670.7 681.6C672.3 676.1 672.3 675.6 670.8 675.1C669.6 674.7 668.4 675.5 666.9 678C663.9 682.8 662.9 683.8 659.5 685.4C652.5 688.9 643.4 686 639 678.9C634.2 671.3 633.8 656.7 638.1 648.5C642 641 649.7 637.8 657.5 640.4C661.8 641.8 663.7 643.7 665.6 648.8C666.5 650.9 667.8 651.7 669.2 650.9C669.6 650.7 669.7 647.7 669.5 644.3L669.2 638L662.8 636.6C659.4 635.9 654.9 635.3 653 635.3ZM471.2 635.6C470.2 635.3 469.8 637.1 469.5 642.8C469.3 648.2 469.5 650.6 470.3 650.7C471.8 651 472.4 650.2 473.5 647C475.1 642.6 476.9 641.4 483 640.8L486.4 640.4L486.7 662C486.9 673.8 486.9 683.9 486.8 684.3C486.3 685.6 484.7 686.9 482.5 687.5C481.4 687.8 480.5 688.7 480.4 689.5C480.3 690.7 482.2 691 491.4 690.9C500.6 690.8 502.5 690.5 502.5 689.2C502.6 688.4 501.7 687.5 500.5 687.3C499.4 687.1 498 686.4 497.4 685.7C496.7 684.9 496.3 677 496.2 663L496.1 641.5L498.3 641.2C504.5 640.4 507 641.7 509.1 646.8C510.5 650.1 512 651.4 513.2 650.2C514.1 649.2 513.4 635.5 512.4 635.3C511.9 635.2 510.8 635.4 510 635.8C508.4 636.5 473.3 636.4 471.2 635.6ZM450 635.9C447.5 635.6 443.9 635.8 442 636.3C433.5 638.4 428.4 647.4 431.1 655.5C432.8 660.6 435.7 663.3 445.1 668.1C451.6 671.6 454.2 675.5 453.3 680.5C452.4 685.4 449.1 687.8 444 687C439.7 686.4 435.5 682.7 432.5 676.8C431.8 675.3 430.7 674.4 430.2 674.8C429 675.7 429.1 678.5 430.4 684.3C431.4 688.8 431.8 689.2 436 690.5C449.9 694.7 461.8 688.1 462 676C462.2 668.3 459 664.5 448 659C441.4 655.6 439.3 653.5 438.7 649.5C437.7 642.2 444.1 637 450 640.2C452.3 641.4 453.7 643.2 455.4 647C457.6 651.9 459.4 650.6 459.2 644C459.1 637.8 458.1 636.9 450 635.9Z" fill="#76B900" fill-rule="evenodd" fill-opacity="0" stroke="#76B900" stroke-width="17.07" pathLength="1" stroke-dasharray="1" stroke-dashoffset="1" stroke-opacity="1"><animate attributeName="stroke-dashoffset" from="1" to="0" begin="0.17s" dur="1.36s" fill="freeze"/><animate attributeName="fill-opacity" from="0" to="1" begin="1.46s" dur="0.31s" fill="freeze"/><animate attributeName="stroke-opacity" from="1" to="0" begin="1.46s" dur="0.31s" fill="freeze"/></path><path d="M582.6 386.5C583.2 385.4 593.5 366 605.4 343.5L626.9 302.5L641.4 330C649.3 345.1 661.2 367.9 667.8 380.5C674.3 393.2 681.5 406.9 683.7 411C686 415.1 689.1 421.3 690.8 424.8L693.8 431.1L690.6 431.5C686.7 431.9 567.6 431.8 563.1 431.4L559.8 431.1L562.5 425.3C564 422.1 567.9 414.8 571 409C574.2 403.2 577.8 396.3 579 393.5C580.3 390.8 581.9 387.6 582.6 386.5ZM615.5 379.8C609.3 391.7 603.8 402.5 603.3 403.8L602.3 406.1L626.9 406L651.4 405.9L639.1 382L626.8 358.1L615.5 379.8Z" fill="#76B900" fill-rule="evenodd" fill-opacity="0" stroke="#76B900" stroke-width="17.07" pathLength="1" stroke-dasharray="1" stroke-dashoffset="1" stroke-opacity="1"><animate attributeName="stroke-dashoffset" from="1" to="0" begin="0.17s" dur="1.36s" fill="freeze"/><animate attributeName="fill-opacity" from="0" to="1" begin="1.46s" dur="0.31s" fill="freeze"/><animate attributeName="stroke-opacity" from="1" to="0" begin="1.46s" dur="0.31s" fill="freeze"/></path><path d="M647.1 771.1L647 767.6L651.8 768C656.3 768.3 669 772.1 672 774C674 775.3 679.4 781 681.2 783.8C682.6 786 682.5 786.1 679.1 787.4C662.2 793.5 647.6 786 647.1 771.1Z" fill="#76B900" fill-rule="evenodd" fill-opacity="0" stroke="#76B900" stroke-width="17.07" pathLength="1" stroke-dasharray="1" stroke-dashoffset="1" stroke-opacity="1"><animate attributeName="stroke-dashoffset" from="1" to="0" begin="0.17s" dur="1.36s" fill="freeze"/><animate attributeName="fill-opacity" from="0" to="1" begin="1.46s" dur="0.31s" fill="freeze"/><animate attributeName="stroke-opacity" from="1" to="0" begin="1.46s" dur="0.31s" fill="freeze"/></path><path d="M537.1 652.5C537.1 646.5 537.4 641.3 537.8 641C539 640.2 544.4 641 546.7 642.3C551.6 645 552.8 648.8 550.7 655.5C549.1 660.7 544.6 663.9 539.3 663.6C537.3 663.5 537.2 663 537.1 652.5Z" fill="#76B900" fill-rule="evenodd" fill-opacity="0" stroke="#76B900" stroke-width="17.07" pathLength="1" stroke-dasharray="1" stroke-dashoffset="1" stroke-opacity="1"><animate attributeName="stroke-dashoffset" from="1" to="0" begin="0.17s" dur="1.36s" fill="freeze"/><animate attributeName="fill-opacity" from="0" to="1" begin="1.46s" dur="0.31s" fill="freeze"/><animate attributeName="stroke-opacity" from="1" to="0" begin="1.46s" dur="0.31s" fill="freeze"/></path><path d="M804.5 640.5C811.6 640.2 816.1 644.4 816 651.5C816 658.9 812.3 662.7 804.5 663.1L801.6 663.2L801.5 651.9L801.5 640.6L804.5 640.5Z" fill="#76B900" fill-rule="evenodd" fill-opacity="0" stroke="#76B900" stroke-width="17.07" pathLength="1" stroke-dasharray="1" stroke-dashoffset="1" stroke-opacity="1"><animate attributeName="stroke-dashoffset" from="1" to="0" begin="0.17s" dur="1.36s" fill="freeze"/><animate attributeName="fill-opacity" from="0" to="1" begin="1.46s" dur="0.31s" fill="freeze"/><animate attributeName="stroke-opacity" from="1" to="0" begin="1.46s" dur="0.31s" fill="freeze"/></path></g><g clip-path="url(#o1)"><rect x="112" y="840" width="1216" height="840" rx="14" class="term"/><g transform="translate(112 840)"><use href="#bar"/></g></g><line x1="142" y1="1490" x2="1298" y2="1490" class="rule"/><g clip-path="url(#o2)"><rect x="112" y="1830" width="1216" height="1020" rx="14" class="term"/><g transform="translate(112 1830)"><use href="#bar"/></g></g><g clip-path="url(#o3)"><rect x="112" y="3030" width="1216" height="980" rx="14" class="term"/><g transform="translate(112 3030)"><use href="#bar"/></g></g><line x1="142" y1="3380" x2="1298" y2="3380" class="rule"/><g clip-path="url(#o4)"><rect x="112" y="4160" width="1216" height="850" rx="14" class="term"/><g transform="translate(112 4160)"><use href="#bar"/></g></g><g clip-path="url(#o5)"><rect x="112" y="5170" width="1216" height="1235" rx="14" class="term"/><g transform="translate(112 5170)"><use href="#bar"/></g></g><line x1="142" y1="5530" x2="1298" y2="5530" class="rule"/><line x1="142" y1="5740" x2="1298" y2="5740" class="rule"/><line x1="142" y1="6150" x2="1298" y2="6150" class="rule"/><g clip-path="url(#o6)"><rect x="112" y="6570" width="1216" height="780" rx="18" fill="#020202" stroke="#5B5B5B" stroke-width="3"/><rect x="112" y="6570" width="1216" height="72" rx="18" fill="#0B0B0B" stroke="#3F3F3F" stroke-width="2"/><rect x="112" y="6624" width="1216" height="18" fill="#0B0B0B"/><text x="154" y="6614" class="sans fg at" font-weight="700">FrameView Analyzer</text><text x="1190" y="6613" class="sans dim at">─</text><text x="1246" y="6613" class="sans dim at">□</text><text x="1300" y="6613" class="sans dim at">×</text><rect x="136" y="6666" width="1168" height="62" rx="12" fill="#080808" stroke="#3A3A3A" stroke-width="1.9"/><text x="158" y="6703" class="sans fg as">Capture folder</text><text x="310" y="6703" class="sans green as">Pair</text><text x="366" y="6703" class="sans muted as">Multi</text><rect x="136" y="6754" width="500" height="176" rx="16" fill="#060606" stroke="#3A3A3A" stroke-width="1.9"/><text x="156" y="6788" class="mono green as">BASE LOG</text><text x="156" y="6830" class="sans fg am">GTA5 Enhanced</text><rect x="660" y="6754" width="500" height="176" rx="16" fill="#060606" stroke="#3A3A3A" stroke-width="1.9"/><text x="680" y="6788" class="mono green as">COMPARISON LOG</text><text x="680" y="6830" class="sans fg am">No comparison loaded</text><rect x="136" y="6958" width="1168" height="108" rx="16" fill="#060606" stroke="#3A3A3A" stroke-width="1.9"/><text x="160" y="6996" class="mono green as">AVERAGE</text><text x="160" y="7036" class="sans fg am">115.2</text><text x="380" y="6996" class="mono green as">1% LOW</text><text x="380" y="7036" class="sans fg am">98.7</text><text x="600" y="6996" class="mono green as">0.1% LOW</text><text x="600" y="7036" class="sans fg am">96.6</text><text x="820" y="6996" class="mono green as">MAX</text><text x="820" y="7036" class="sans fg am">141.4 FPS</text><text x="1040" y="6996" class="mono green as">MIN</text><text x="1040" y="7036" class="sans fg am">96.0 FPS</text><rect x="136" y="7100" width="1168" height="220" rx="16" fill="#010101" stroke="#454545" stroke-width="2.3"/><text x="160" y="7140" class="sans fg as">FPS (Calculated)</text><line x1="192" y1="7164" x2="1266" y2="7164" stroke="#181818"/><line x1="192" y1="7180" x2="1266" y2="7180" stroke="#181818"/><line x1="192" y1="7196" x2="1266" y2="7196" stroke="#181818"/><line x1="192" y1="7212" x2="1266" y2="7212" stroke="#181818"/><line x1="192" y1="7228" x2="1266" y2="7228" stroke="#181818"/><line x1="192" y1="7244" x2="1266" y2="7244" stroke="#181818"/><line x1="192" y1="7260" x2="1266" y2="7260" stroke="#181818"/><line x1="192" y1="7276" x2="1266" y2="7276" stroke="#181818"/><line x1="192" y1="7292" x2="1266" y2="7292" stroke="#181818"/><line x1="276" y1="7154" x2="276" y2="7305" stroke="#151515"/><line x1="360" y1="7154" x2="360" y2="7305" stroke="#151515"/><line x1="444" y1="7154" x2="444" y2="7305" stroke="#151515"/><line x1="528" y1="7154" x2="528" y2="7305" stroke="#151515"/><line x1="612" y1="7154" x2="612" y2="7305" stroke="#151515"/><line x1="696" y1="7154" x2="696" y2="7305" stroke="#151515"/><line x1="780" y1="7154" x2="780" y2="7305" stroke="#151515"/><line x1="864" y1="7154" x2="864" y2="7305" stroke="#151515"/><line x1="948" y1="7154" x2="948" y2="7305" stroke="#151515"/><line x1="1032" y1="7154" x2="1032" y2="7305" stroke="#151515"/><line x1="1116" y1="7154" x2="1116" y2="7305" stroke="#151515"/><line x1="1200" y1="7154" x2="1200" y2="7305" stroke="#151515"/><line x1="192" y1="7230" x2="1266" y2="7230" stroke="#76B900" stroke-opacity=".55" stroke-width="3.4" stroke-dasharray="16 14"/><path d="M192,7184 L236,7202 L286,7192 L346,7236 L406,7216 L466,7265 L526,7208 L586,7244 L646,7196 L706,7232 L766,7257 L826,7184 L886,7265 L946,7236 L1006,7252 L1066,7228 L1126,7276 L1186,7220 L1266,7244" fill="none" stroke="#76B900" stroke-width="4.4" pathLength="1" stroke-dasharray="1" stroke-dashoffset="1"><animate attributeName="stroke-dashoffset" from="1" to="0" begin="62.04s" dur="3.54s" fill="freeze"/></path></g><g clip-path="url(#o7)"><rect x="112" y="7420" width="1216" height="500" rx="14" class="term"/><g transform="translate(112 7420)"><use href="#bar"/></g></g><rect x="174" y="7592" width="12" height="28" fill="#76B900" opacity="0"><animate attributeName="opacity" values="0;1;1;0" keyTimes="0;.1;.55;1" begin="68.14s" dur=".86s" repeatCount="indefinite"/></rect><line x1="112" y1="7990" x2="1328" y2="7990" class="rule"/><text x="112" y="8055" class="mono dim foot">PROFILE INTERFACE / WINDOWS TERMINAL / FRAMEVIEW VISUALIZATION / LIVE TELEMETRY</text><text x="1328" y="8055" class="mono dim foot" text-anchor="end">GITHUB.COM/STRECKERMX</text><text x="340" y="220" class="sans fg hero" clip-path="url(#t1)">Strecker</text><text x="340" y="305" class="mono muted sub" clip-path="url(#t2)">WINDOWS SOFTWARE / PERFORMANCE / AUTOMATION / LOCAL AI</text><text x="340" y="362" class="sans muted lead" clip-path="url(#t3)">Practical software. Measurable performance. Clear interfaces.</text><text x="340" y="452" class="mono cyan pr" clip-path="url(#t4)">❯ whoami</text><text x="372" y="500" class="mono muted code" clip-path="url(#t5)">developer building fast, practical desktop tools and technical workflows</text><text x="340" y="568" class="mono cyan pr" clip-path="url(#t6)">❯ status --current</text><text x="372" y="616" class="mono green code" clip-path="url(#t7)">building · measuring · refining · shipping</text><text x="142" y="958" class="mono green ps" clip-path="url(#t8)">PowerShell 7.6.5</text><text x="142" y="1014" class="mono cyan tt" clip-path="url(#t9)">01 / IDENTITY</text><text x="142" y="1072" class="sans pink th" clip-path="url(#t10)">What I build</text><text x="142" y="1126" class="sans muted body" clip-path="url(#t11)">Desktop software and workflows where performance, clarity, and repeatability matter.</text><text x="142" y="1226" class="mono cyan pr" clip-path="url(#t12)">❯ whoami</text><text x="174" y="1272" class="mono muted code" clip-path="url(#t13)">developer building fast, practical desktop tools</text><text x="142" y="1354" class="mono cyan pr" clip-path="url(#t14)">❯ priorities</text><text x="174" y="1400" class="mono muted code" clip-path="url(#t15)">predictable behavior · readable complexity · measurable results</text><text x="142" y="1560" class="mono dim ml" clip-path="url(#t16)">PRIMARY</text><text x="350" y="1560" class="mono fg mv" clip-path="url(#t17)">C# / .NET</text><text x="760" y="1560" class="mono dim ml" clip-path="url(#t18)">UI</text><text x="890" y="1560" class="mono fg mv" clip-path="url(#t19)">WPF / Windows</text><text x="142" y="1948" class="mono green ps" clip-path="url(#t20)">PowerShell 7.6.5</text><text x="142" y="2004" class="mono cyan tt" clip-path="url(#t21)">02 / FOCUS</text><text x="142" y="2062" class="sans pink th" clip-path="url(#t22)">Where I spend my time</text><text x="142" y="2116" class="sans muted body" clip-path="url(#t23)">The same themes keep showing up across the tools I build.</text><text x="142" y="2216" class="mono cyan pr" clip-path="url(#t24)">❯ performance</text><text x="174" y="2262" class="mono fg code" clip-path="url(#t25)">Benchmarking · telemetry · filtering · visualization</text><text x="174" y="2306" class="mono muted code" clip-path="url(#t26)">Turn noisy technical data into something you can inspect, compare, and trust.</text><text x="142" y="2414" class="mono cyan pr" clip-path="url(#t27)">❯ automation</text><text x="174" y="2460" class="mono fg code" clip-path="url(#t28)">Repeatable workflows instead of repeated effort</text><text x="174" y="2504" class="mono muted code" clip-path="url(#t29)">Scripts, CI, and practical AI tooling that remove friction from development.</text><text x="142" y="2612" class="mono cyan pr" clip-path="url(#t30)">❯ interface-design</text><text x="174" y="2658" class="mono fg code" clip-path="url(#t31)">Technical software should still feel polished</text><text x="174" y="2702" class="mono muted code" clip-path="url(#t32)">Information hierarchy and visual feedback are part of engineering.</text><text x="142" y="3148" class="mono green ps" clip-path="url(#t33)">PowerShell 7.6.5</text><text x="142" y="3204" class="mono cyan tt" clip-path="url(#t34)">03 / TOOLBOX</text><text x="142" y="3262" class="sans pink th" clip-path="url(#t35)">Tools I reach for</text><text x="142" y="3316" class="sans muted body" clip-path="url(#t36)">A compact stack for desktop work, automation, testing, and delivery.</text><text x="142" y="3465" class="mono dim ml" clip-path="url(#t37)">LANGUAGE</text><text x="410" y="3465" class="mono fg mv" clip-path="url(#t38)">C#</text><text x="142" y="3545" class="mono dim ml" clip-path="url(#t39)">RUNTIME</text><text x="410" y="3545" class="mono fg mv" clip-path="url(#t40)">.NET 10</text><text x="142" y="3625" class="mono dim ml" clip-path="url(#t41)">DESKTOP UI</text><text x="410" y="3625" class="mono fg mv" clip-path="url(#t42)">WPF</text><text x="142" y="3705" class="mono dim ml" clip-path="url(#t43)">AUTOMATION</text><text x="410" y="3705" class="mono fg mv" clip-path="url(#t44)">Python · PowerShell</text><text x="142" y="3785" class="mono dim ml" clip-path="url(#t45)">DELIVERY</text><text x="410" y="3785" class="mono fg mv" clip-path="url(#t46)">GitHub Actions · Releases</text><text x="142" y="3865" class="mono dim ml" clip-path="url(#t47)">AI WORKFLOWS</text><text x="410" y="3865" class="mono green mv" clip-path="url(#t48)">Local models · API-assisted development</text><text x="142" y="4278" class="mono green ps" clip-path="url(#t49)">PowerShell 7.6.5</text><text x="142" y="4334" class="mono cyan tt" clip-path="url(#t50)">04 / WORKFLOW</text><text x="142" y="4392" class="sans pink th" clip-path="url(#t51)">How I like to work</text><text x="142" y="4446" class="sans muted body" clip-path="url(#t52)">Small feedback loops, measurable results, and less ceremony.</text><text x="142" y="4570" class="mono cyan pr" clip-path="url(#t53)">01 inspect</text><text x="390" y="4570" class="mono muted code" clip-path="url(#t54)">understand the actual problem</text><text x="142" y="4660" class="mono cyan pr" clip-path="url(#t55)">02 build</text><text x="390" y="4660" class="mono muted code" clip-path="url(#t56)">prefer the simplest clear solution</text><text x="142" y="4750" class="mono cyan pr" clip-path="url(#t57)">03 measure</text><text x="390" y="4750" class="mono muted code" clip-path="url(#t58)">test performance, behavior, and UX</text><text x="142" y="4840" class="mono cyan pr" clip-path="url(#t59)">04 refine</text><text x="390" y="4840" class="mono muted code" clip-path="url(#t60)">remove friction and fragile edges</text><text x="142" y="5288" class="mono green ps" clip-path="url(#t61)">PowerShell 7.6.5</text><text x="142" y="5344" class="mono cyan tt" clip-path="url(#t62)">05 / LIVE PROJECT TELEMETRY</text><text x="142" y="5402" class="sans pink th" clip-path="url(#t63)">FrameView Analyzer</text><text x="142" y="5456" class="sans muted body" clip-path="url(#t64)">Real repository data, refreshed automatically by GitHub Actions.</text><text x="1298" y="5288" class="mono dim code" clip-path="url(#t65)" text-anchor="end">SYNC 2026-09-17 UTC</text><text x="142" y="5615" class="mono dim ml" clip-path="url(#t66)">LATEST RELEASE</text><text x="142" y="5670" class="mono fg mb" clip-path="url(#t67)">v4.1.0</text><text x="470" y="5615" class="mono dim ml" clip-path="url(#t68)">STARS</text><text x="470" y="5670" class="mono fg mb" clip-path="url(#t69)">4</text><text x="730" y="5615" class="mono dim ml" clip-path="url(#t70)">CI</text><text x="730" y="5670" class="mono green mb" clip-path="url(#t71)">PASSING</text><text x="1010" y="5615" class="mono dim ml" clip-path="url(#t72)">OPEN PRS</text><text x="1010" y="5670" class="mono fg mb" clip-path="url(#t73)">0</text><text x="142" y="5820" class="mono dim ml" clip-path="url(#t74)">PRIMARY LANGUAGE</text><text x="442" y="5820" class="mono fg mv" clip-path="url(#t75)">C#</text><text x="730" y="5820" class="mono dim ml" clip-path="url(#t76)">RELEASE DATE</text><text x="1030" y="5820" class="mono fg mv" clip-path="url(#t77)">2026-09-17</text><text x="142" y="5960" class="mono cyan pr" clip-path="url(#t78)">❯ git log -1 --oneline</text><text x="174" y="6012" class="mono fg code" clip-path="url(#t79)">8874738  test: wait for multi reanalysis failure completion</text><text x="174" y="6060" class="mono dim code" clip-path="url(#t80)">committed 2026-09-17</text><text x="142" y="6230" class="mono dim ml" clip-path="url(#t81)">STATUS</text><text x="390" y="6230" class="mono green mv" clip-path="url(#t82)">BUILDING · REFINING · RELEASING</text><text x="142" y="6330" class="sans muted body" clip-path="url(#t83)">Native Windows benchmark analysis for NVIDIA FrameView captures and NVIDIA App logs.</text><text x="142" y="7538" class="mono green ps" clip-path="url(#t84)">PowerShell 7.6.5</text><text x="142" y="7616" class="mono cyan pr" clip-path="url(#t85)">❯</text></svg>