<svg xmlns="http://www.w3.org/2000/svg" width="1440" height="9400" viewBox="0 0 1440 9400"><title>Strecker developer profile</title><defs><linearGradient id="scan" x1="0" y1="0" x2="0" y2="1"><stop offset="0" stop-color="#76B900" stop-opacity="0"/><stop offset=".3" stop-color="#76B900" stop-opacity=".018"/><stop offset=".5" stop-color="#76B900" stop-opacity=".15"/><stop offset=".7" stop-color="#76B900" stop-opacity=".018"/><stop offset="1" stop-color="#76B900" stop-opacity="0"/></linearGradient><filter id="glow" x="-80%" y="-80%" width="260%" height="260%"><feGaussianBlur stdDeviation="8" result="b"/><feMerge><feMergeNode in="b"/><feMergeNode in="SourceGraphic"/></feMerge></filter><style>.sans{font-family:Inter,"Segoe UI",Arial,sans-serif}.mono{font-family:ui-monospace,"Cascadia Mono","Cascadia Code",Consolas,monospace}.fg{fill:#F4F6F8}.muted{fill:#A5AFB9}.dim{fill:#6D7883}.green{fill:#76B900}.cyan{fill:#00D4FF}.pink{fill:#FF6FAE}.rule{stroke:#fff;stroke-opacity:.095;stroke-width:1.6}.term{fill:none;stroke:#5A5A5A;stroke-width:2.8}.top{fill:#2D2D2D}.tab{fill:#0A0A0A}.tabt{font-size:20px;font-weight:600}.ico{font-size:25px}.ps{font-size:19px;font-weight:700}.hero{font-size:72px;font-weight:720}.sub{font-size:21px;letter-spacing:.1em}.lead{font-size:24px}.tt{font-size:16px;letter-spacing:.16em;font-weight:600}.th{font-size:27px;font-weight:650}.pr{font-size:20px;font-weight:650}.code{font-size:18px}.body{font-size:20px}.ml{font-size:15px;letter-spacing:.1em}.mv{font-size:20px;font-weight:620}.mb{font-size:25px;font-weight:680}.foot{font-size:16px;letter-spacing:.12em}.as{font-size:13px}.at{font-size:16px}.am{font-size:23px;font-weight:700}</style><g id="bar"><rect width="1216" height="64" rx="14" class="top"/><rect width="246" height="64" rx="14" class="tab"/><rect y="48" width="246" height="16" class="tab"/><text x="34" y="40" class="sans fg tabt">strecker</text><text x="214" y="41" class="sans fg ico">×</text><line x1="246" y1="10" x2="246" y2="54" stroke="#444"/><text x="274" y="42" class="sans fg ico">＋</text><line x1="316" y1="10" x2="316" y2="54" stroke="#444"/><text x="338" y="39" class="sans fg ico">⌄</text><text x="1034" y="41" class="sans fg ico">−</text><text x="1100" y="39" class="sans fg ico">□</text><text x="1170" y="41" class="sans fg ico">×</text></g><clipPath id="t1"><rect x="340" y="138" width="0" height="110"><animate attributeName="width" from="0" to="460" begin="1.91s" dur="0.82s" fill="freeze"/></rect></clipPath><clipPath id="t2"><rect x="340" y="274" width="0" height="43"><animate attributeName="width" from="0" to="980" begin="2.85s" dur="1.21s" fill="freeze"/></rect></clipPath><clipPath id="t3"><rect x="340" y="331" width="0" height="43"><animate attributeName="width" from="0" to="850" begin="4.17s" dur="0.98s" fill="freeze"/></rect></clipPath><clipPath id="t4"><rect x="340" y="421" width="0" height="43"><animate attributeName="width" from="0" to="170" begin="5.27s" dur="0.55s" fill="freeze"/></rect></clipPath><clipPath id="t5"><rect x="372" y="469" width="0" height="43"><animate attributeName="width" from="0" to="820" begin="5.89s" dur="1.13s" fill="freeze"/></rect></clipPath><clipPath id="t6"><rect x="340" y="537" width="0" height="43"><animate attributeName="width" from="0" to="260" begin="7.14s" dur="0.62s" fill="freeze"/></rect></clipPath><clipPath id="t7"><rect x="372" y="585" width="0" height="43"><animate attributeName="width" from="0" to="620" begin="7.84s" dur="0.90s" fill="freeze"/></rect></clipPath><clipPath id="o1"><rect x="112" y="840" width="1216" height="0"><animate attributeName="height" from="0" to="840" begin="9.01s" dur="0.51s" fill="freeze"/></rect></clipPath><clipPath id="t8"><rect x="142" y="927" width="0" height="43"><animate attributeName="width" from="0" to="230" begin="9.67s" dur="0.78s" fill="freeze"/></rect></clipPath><clipPath id="t9"><rect x="142" y="983" width="0" height="43"><animate attributeName="width" from="0" to="210" begin="10.58s" dur="0.62s" fill="freeze"/></rect></clipPath><clipPath id="t10"><rect x="142" y="1041" width="0" height="43"><animate attributeName="width" from="0" to="260" begin="11.33s" dur="0.78s" fill="freeze"/></rect></clipPath><clipPath id="t11"><rect x="142" y="1095" width="0" height="43"><animate attributeName="width" from="0" to="1020" begin="12.23s" dur="1.21s" fill="freeze"/></rect></clipPath><clipPath id="t12"><rect x="142" y="1195" width="0" height="43"><animate attributeName="width" from="0" to="170" begin="13.56s" dur="0.58s" fill="freeze"/></rect></clipPath><clipPath id="t13"><rect x="174" y="1241" width="0" height="43"><animate attributeName="width" from="0" to="650" begin="14.27s" dur="0.94s" fill="freeze"/></rect></clipPath><clipPath id="t14"><rect x="142" y="1323" width="0" height="43"><animate attributeName="width" from="0" to="200" begin="15.33s" dur="0.62s" fill="freeze"/></rect></clipPath><clipPath id="t15"><rect x="174" y="1369" width="0" height="43"><animate attributeName="width" from="0" to="810" begin="16.08s" dur="1.05s" fill="freeze"/></rect></clipPath><clipPath id="t16"><rect x="142" y="1529" width="0" height="43"><animate attributeName="width" from="0" to="110" begin="17.26s" dur="0.43s" fill="freeze"/></rect></clipPath><clipPath id="t17"><rect x="350" y="1529" width="0" height="43"><animate attributeName="width" from="0" to="180" begin="17.59s" dur="0.43s" fill="freeze"/></rect></clipPath><clipPath id="t18"><rect x="760" y="1529" width="0" height="43"><animate attributeName="width" from="0" to="55" begin="17.92s" dur="0.43s" fill="freeze"/></rect></clipPath><clipPath id="t19"><rect x="890" y="1529" width="0" height="43"><animate attributeName="width" from="0" to="220" begin="18.24s" dur="0.43s" fill="freeze"/></rect></clipPath><clipPath id="o2"><rect x="112" y="1830" width="1216" height="0"><animate attributeName="height" from="0" to="1020" begin="19.08s" dur="0.51s" fill="freeze"/></rect></clipPath><clipPath id="t20"><rect x="142" y="1917" width="0" height="43"><animate attributeName="width" from="0" to="230" begin="19.74s" dur="0.78s" fill="freeze"/></rect></clipPath><clipPath id="t21"><rect x="142" y="1973" width="0" height="43"><animate attributeName="width" from="0" to="180" begin="20.65s" dur="0.62s" fill="freeze"/></rect></clipPath><clipPath id="t22"><rect x="142" y="2031" width="0" height="43"><animate attributeName="width" from="0" to="400" begin="21.40s" dur="0.86s" fill="freeze"/></rect></clipPath><clipPath id="t23"><rect x="142" y="2085" width="0" height="43"><animate attributeName="width" from="0" to="780" begin="22.38s" dur="1.09s" fill="freeze"/></rect></clipPath><clipPath id="t24"><rect x="142" y="2185" width="0" height="43"><animate attributeName="width" from="0" to="220" begin="23.60s" dur="0.62s" fill="freeze"/></rect></clipPath><clipPath id="t25"><rect x="174" y="2231" width="0" height="43"><animate attributeName="width" from="0" to="670" begin="24.34s" dur="0.98s" fill="freeze"/></rect></clipPath><clipPath id="t26"><rect x="174" y="2275" width="0" height="43"><animate attributeName="width" from="0" to="970" begin="25.44s" dur="1.17s" fill="freeze"/></rect></clipPath><clipPath id="t27"><rect x="142" y="2383" width="0" height="43"><animate attributeName="width" from="0" to="205" begin="26.74s" dur="0.62s" fill="freeze"/></rect></clipPath><clipPath id="t28"><rect x="174" y="2429" width="0" height="43"><animate attributeName="width" from="0" to="690" begin="27.49s" dur="0.94s" fill="freeze"/></rect></clipPath><clipPath id="t29"><rect x="174" y="2473" width="0" height="43"><animate attributeName="width" from="0" to="970" begin="28.55s" dur="1.17s" fill="freeze"/></rect></clipPath><clipPath id="t30"><rect x="142" y="2581" width="0" height="43"><animate attributeName="width" from="0" to="260" begin="29.84s" dur="0.70s" fill="freeze"/></rect></clipPath><clipPath id="t31"><rect x="174" y="2627" width="0" height="43"><animate attributeName="width" from="0" to="650" begin="30.67s" dur="0.94s" fill="freeze"/></rect></clipPath><clipPath id="t32"><rect x="174" y="2671" width="0" height="43"><animate attributeName="width" from="0" to="850" begin="31.73s" dur="1.09s" fill="freeze"/></rect></clipPath><clipPath id="o3"><rect x="112" y="3030" width="1216" height="0"><animate attributeName="height" from="0" to="980" begin="33.45s" dur="0.51s" fill="freeze"/></rect></clipPath><clipPath id="t33"><rect x="142" y="3117" width="0" height="43"><animate attributeName="width" from="0" to="230" begin="34.12s" dur="0.78s" fill="freeze"/></rect></clipPath><clipPath id="t34"><rect x="142" y="3173" width="0" height="43"><animate attributeName="width" from="0" to="210" begin="35.02s" dur="0.62s" fill="freeze"/></rect></clipPath><clipPath id="t35"><rect x="142" y="3231" width="0" height="43"><animate attributeName="width" from="0" to="300" begin="35.77s" dur="0.78s" fill="freeze"/></rect></clipPath><clipPath id="t36"><rect x="142" y="3285" width="0" height="43"><animate attributeName="width" from="0" to="880" begin="36.68s" dur="1.09s" fill="freeze"/></rect></clipPath><clipPath id="t37"><rect x="142" y="3434" width="0" height="43"><animate attributeName="width" from="0" to="180" begin="37.89s" dur="0.47s" fill="freeze"/></rect></clipPath><clipPath id="t38"><rect x="410" y="3434" width="0" height="43"><animate attributeName="width" from="0" to="620" begin="38.24s" dur="0.74s" fill="freeze"/></rect></clipPath><clipPath id="t39"><rect x="142" y="3514" width="0" height="43"><animate attributeName="width" from="0" to="180" begin="38.81s" dur="0.47s" fill="freeze"/></rect></clipPath><clipPath id="t40"><rect x="410" y="3514" width="0" height="43"><animate attributeName="width" from="0" to="620" begin="39.16s" dur="0.74s" fill="freeze"/></rect></clipPath><clipPath id="t41"><rect x="142" y="3594" width="0" height="43"><animate attributeName="width" from="0" to="180" begin="39.72s" dur="0.47s" fill="freeze"/></rect></clipPath><clipPath id="t42"><rect x="410" y="3594" width="0" height="43"><animate attributeName="width" from="0" to="620" begin="40.07s" dur="0.74s" fill="freeze"/></rect></clipPath><clipPath id="t43"><rect x="142" y="3674" width="0" height="43"><animate attributeName="width" from="0" to="180" begin="40.63s" dur="0.47s" fill="freeze"/></rect></clipPath><clipPath id="t44"><rect x="410" y="3674" width="0" height="43"><animate attributeName="width" from="0" to="620" begin="40.98s" dur="0.74s" fill="freeze"/></rect></clipPath><clipPath id="t45"><rect x="142" y="3754" width="0" height="43"><animate attributeName="width" from="0" to="180" begin="41.54s" dur="0.47s" fill="freeze"/></rect></clipPath><clipPath id="t46"><rect x="410" y="3754" width="0" height="43"><animate attributeName="width" from="0" to="620" begin="41.89s" dur="0.74s" fill="freeze"/></rect></clipPath><clipPath id="t47"><rect x="142" y="3834" width="0" height="43"><animate attributeName="width" from="0" to="180" begin="42.46s" dur="0.47s" fill="freeze"/></rect></clipPath><clipPath id="t48"><rect x="410" y="3834" width="0" height="43"><animate attributeName="width" from="0" to="620" begin="42.81s" dur="0.74s" fill="freeze"/></rect></clipPath><clipPath id="o4"><rect x="112" y="4160" width="1216" height="0"><animate attributeName="height" from="0" to="850" begin="43.88s" dur="0.51s" fill="freeze"/></rect></clipPath><clipPath id="t49"><rect x="142" y="4247" width="0" height="43"><animate attributeName="width" from="0" to="230" begin="44.54s" dur="0.78s" fill="freeze"/></rect></clipPath><clipPath id="t50"><rect x="142" y="4303" width="0" height="43"><animate attributeName="width" from="0" to="210" begin="45.44s" dur="0.62s" fill="freeze"/></rect></clipPath><clipPath id="t51"><rect x="142" y="4361" width="0" height="43"><animate attributeName="width" from="0" to="340" begin="46.19s" dur="0.78s" fill="freeze"/></rect></clipPath><clipPath id="t52"><rect x="142" y="4415" width="0" height="43"><animate attributeName="width" from="0" to="780" begin="47.10s" dur="1.05s" fill="freeze"/></rect></clipPath><clipPath id="t53"><rect x="142" y="4539" width="0" height="43"><animate attributeName="width" from="0" to="190" begin="48.27s" dur="0.58s" fill="freeze"/></rect></clipPath><clipPath id="t54"><rect x="390" y="4539" width="0" height="43"><animate attributeName="width" from="0" to="650" begin="48.73s" dur="0.78s" fill="freeze"/></rect></clipPath><clipPath id="t55"><rect x="142" y="4629" width="0" height="43"><animate attributeName="width" from="0" to="190" begin="49.34s" dur="0.58s" fill="freeze"/></rect></clipPath><clipPath id="t56"><rect x="390" y="4629" width="0" height="43"><animate attributeName="width" from="0" to="650" begin="49.79s" dur="0.78s" fill="freeze"/></rect></clipPath><clipPath id="t57"><rect x="142" y="4719" width="0" height="43"><animate attributeName="width" from="0" to="190" begin="50.40s" dur="0.58s" fill="freeze"/></rect></clipPath><clipPath id="t58"><rect x="390" y="4719" width="0" height="43"><animate attributeName="width" from="0" to="650" begin="50.85s" dur="0.78s" fill="freeze"/></rect></clipPath><clipPath id="t59"><rect x="142" y="4809" width="0" height="43"><animate attributeName="width" from="0" to="190" begin="51.46s" dur="0.58s" fill="freeze"/></rect></clipPath><clipPath id="t60"><rect x="390" y="4809" width="0" height="43"><animate attributeName="width" from="0" to="650" begin="51.91s" dur="0.78s" fill="freeze"/></rect></clipPath><clipPath id="o5"><rect x="112" y="5170" width="1216" height="0"><animate attributeName="height" from="0" to="1235" begin="53.02s" dur="0.51s" fill="freeze"/></rect></clipPath><clipPath id="t61"><rect x="142" y="5257" width="0" height="43"><animate attributeName="width" from="0" to="230" begin="53.69s" dur="0.78s" fill="freeze"/></rect></clipPath><clipPath id="t62"><rect x="142" y="5313" width="0" height="43"><animate attributeName="width" from="0" to="420" begin="54.59s" dur="0.74s" fill="freeze"/></rect></clipPath><clipPath id="t63"><rect x="142" y="5371" width="0" height="43"><animate attributeName="width" from="0" to="340" begin="55.46s" dur="0.78s" fill="freeze"/></rect></clipPath><clipPath id="t64"><rect x="142" y="5425" width="0" height="43"><animate attributeName="width" from="0" to="860" begin="56.36s" dur="1.09s" fill="freeze"/></rect></clipPath><clipPath id="t65"><rect x="1038" y="5257" width="0" height="43"><animate attributeName="width" from="0" to="260" begin="57.58s" dur="0.70s" fill="freeze"/></rect></clipPath><clipPath id="t66"><rect x="142" y="5584" width="0" height="43"><animate attributeName="width" from="0" to="180" begin="58.38s" dur="0.43s" fill="freeze"/></rect></clipPath><clipPath id="t67"><rect x="142" y="5639" width="0" height="43"><animate attributeName="width" from="0" to="250" begin="58.70s" dur="0.58s" fill="freeze"/></rect></clipPath><clipPath id="t68"><rect x="470" y="5584" width="0" height="43"><animate attributeName="width" from="0" to="180" begin="59.16s" dur="0.43s" fill="freeze"/></rect></clipPath><clipPath id="t69"><rect x="470" y="5639" width="0" height="43"><animate attributeName="width" from="0" to="250" begin="59.48s" dur="0.58s" fill="freeze"/></rect></clipPath><clipPath id="t70"><rect x="730" y="5584" width="0" height="43"><animate attributeName="width" from="0" to="180" begin="59.94s" dur="0.43s" fill="freeze"/></rect></clipPath><clipPath id="t71"><rect x="730" y="5639" width="0" height="43"><animate attributeName="width" from="0" to="250" begin="60.26s" dur="0.58s" fill="freeze"/></rect></clipPath><clipPath id="t72"><rect x="1010" y="5584" width="0" height="43"><animate attributeName="width" from="0" to="180" begin="60.72s" dur="0.43s" fill="freeze"/></rect></clipPath><clipPath id="t73"><rect x="1010" y="5639" width="0" height="43"><animate attributeName="width" from="0" to="250" begin="61.04s" dur="0.58s" fill="freeze"/></rect></clipPath><clipPath id="t74"><rect x="142" y="5789" width="0" height="43"><animate attributeName="width" from="0" to="220" begin="61.50s" dur="0.47s" fill="freeze"/></rect></clipPath><clipPath id="t75"><rect x="442" y="5789" width="0" height="43"><animate attributeName="width" from="0" to="260" begin="61.85s" dur="0.62s" fill="freeze"/></rect></clipPath><clipPath id="t76"><rect x="730" y="5789" width="0" height="43"><animate attributeName="width" from="0" to="220" begin="62.33s" dur="0.47s" fill="freeze"/></rect></clipPath><clipPath id="t77"><rect x="1030" y="5789" width="0" height="43"><animate attributeName="width" from="0" to="260" begin="62.68s" dur="0.62s" fill="freeze"/></rect></clipPath><clipPath id="t78"><rect x="142" y="5929" width="0" height="43"><animate attributeName="width" from="0" to="320" begin="63.16s" dur="0.70s" fill="freeze"/></rect></clipPath><clipPath id="t79"><rect x="174" y="5981" width="0" height="43"><animate attributeName="width" from="0" to="900" begin="63.98s" dur="1.05s" fill="freeze"/></rect></clipPath><clipPath id="t80"><rect x="174" y="6029" width="0" height="43"><animate attributeName="width" from="0" to="330" begin="65.17s" dur="0.66s" fill="freeze"/></rect></clipPath><clipPath id="t81"><rect x="142" y="6199" width="0" height="43"><animate attributeName="width" from="0" to="120" begin="65.95s" dur="0.43s" fill="freeze"/></rect></clipPath><clipPath id="t82"><rect x="390" y="6199" width="0" height="43"><animate attributeName="width" from="0" to="520" begin="66.28s" dur="0.78s" fill="freeze"/></rect></clipPath><clipPath id="t83"><rect x="142" y="6299" width="0" height="43"><animate attributeName="width" from="0" to="1040" begin="67.20s" dur="1.17s" fill="freeze"/></rect></clipPath><clipPath id="o6"><rect x="112" y="6570" width="1216" height="0"><animate attributeName="height" from="0" to="1530" begin="69.60s" dur="0.62s" fill="freeze"/></rect></clipPath><clipPath id="o7"><rect x="112" y="8280" width="1216" height="0"><animate attributeName="height" from="0" to="500" begin="76.15s" dur="0.51s" fill="freeze"/></rect></clipPath><clipPath id="t84"><rect x="142" y="8367" width="0" height="43"><animate attributeName="width" from="0" to="230" begin="76.81s" dur="0.78s" fill="freeze"/></rect></clipPath><clipPath id="t85"><rect x="142" y="8445" width="0" height="43"><animate attributeName="width" from="0" to="40" begin="77.73s" dur="0.35s" fill="freeze"/></rect></clipPath></defs><rect width="1440" height="9400" rx="34" fill="#000"/><rect x="2" y="2" width="1436" height="9396" rx="32" fill="none" stroke="#76B900" stroke-opacity=".1" stroke-width="2"/><g id="profile-scans"><rect y="-620" width="1440" height="620" fill="url(#scan)"><animate attributeName="y" from="-620" to="10020" dur="24s" begin="0s" repeatCount="indefinite"/></rect><rect y="-620" width="1440" height="620" fill="url(#scan)"><animate attributeName="y" from="-620" to="10020" dur="24s" begin="-12s" repeatCount="indefinite"/></rect></g><path d="M290 130L276 147L262 160L247 169L229 178L228 120L220 120L188 139L154 121L147 121L146 178L121 167L100 151L109 172L118 186L141 199L130 199L146 213L170 212L170 214L157 220L172 228L194 234L220 225L240 212L218 206L217 204L241 202L255 199L269 183L255 182L275 173L283 155Z" fill="#76B900" fill-opacity="0" stroke="#76B900" stroke-width="4" pathLength="1" stroke-dasharray="1" stroke-dashoffset="1"><animate attributeName="stroke-dashoffset" from="1" to="0" begin="0.20s" dur="1.56s" fill="freeze"/><animate attributeName="fill-opacity" from="0" to="1" begin="1.68s" dur="0.35s" fill="freeze"/></path><g clip-path="url(#o1)"><rect x="112" y="840" width="1216" height="840" rx="14" class="term"/><g transform="translate(112 840)"><use href="#bar"/></g></g><line x1="142" y1="1490" x2="1298" y2="1490" class="rule"/><g clip-path="url(#o2)"><rect x="112" y="1830" width="1216" height="1020" rx="14" class="term"/><g transform="translate(112 1830)"><use href="#bar"/></g></g><g clip-path="url(#o3)"><rect x="112" y="3030" width="1216" height="980" rx="14" class="term"/><g transform="translate(112 3030)"><use href="#bar"/></g></g><line x1="142" y1="3380" x2="1298" y2="3380" class="rule"/><g clip-path="url(#o4)"><rect x="112" y="4160" width="1216" height="850" rx="14" class="term"/><g transform="translate(112 4160)"><use href="#bar"/></g></g><g clip-path="url(#o5)"><rect x="112" y="5170" width="1216" height="1235" rx="14" class="term"/><g transform="translate(112 5170)"><use href="#bar"/></g></g><line x1="142" y1="5530" x2="1298" y2="5530" class="rule"/><line x1="142" y1="5740" x2="1298" y2="5740" class="rule"/><line x1="142" y1="6150" x2="1298" y2="6150" class="rule"/><g clip-path="url(#o6)"><rect x="112" y="6570" width="1216" height="1530" rx="18" fill="#020202" stroke="#5B5B5B" stroke-width="3"/><rect x="112" y="6570" width="1216" height="72" rx="18" fill="#0B0B0B" stroke="#3F3F3F" stroke-width="2"/><rect x="112" y="6624" width="1216" height="18" fill="#0B0B0B"/><text x="154" y="6614" class="sans fg at" font-weight="700">FrameView Analyzer</text><text x="1190" y="6613" class="sans dim at">─</text><text x="1246" y="6613" class="sans dim at">□</text><text x="1300" y="6613" class="sans dim at">×</text><rect x="136" y="6666" width="1168" height="62" rx="12" fill="#080808" stroke="#3A3A3A" stroke-width="1.9"/><text x="158" y="6703" class="sans fg as">Capture folder</text><text x="310" y="6703" class="sans green as">Pair</text><text x="366" y="6703" class="sans muted as">Multi</text><rect x="136" y="6754" width="500" height="176" rx="16" fill="#060606" stroke="#3A3A3A" stroke-width="1.9"/><text x="156" y="6788" class="mono green as">BASE LOG</text><text x="156" y="6830" class="sans fg am">GTA5 Enhanced</text><rect x="660" y="6754" width="500" height="176" rx="16" fill="#060606" stroke="#3A3A3A" stroke-width="1.9"/><text x="680" y="6788" class="mono green as">COMPARISON LOG</text><text x="680" y="6830" class="sans fg am">No comparison loaded</text><rect x="136" y="6958" width="1168" height="108" rx="16" fill="#060606" stroke="#3A3A3A" stroke-width="1.9"/><text x="160" y="6996" class="mono green as">AVERAGE</text><text x="160" y="7036" class="sans fg am">115.2</text><text x="380" y="6996" class="mono green as">1% LOW</text><text x="380" y="7036" class="sans fg am">98.7</text><text x="600" y="6996" class="mono green as">0.1% LOW</text><text x="600" y="7036" class="sans fg am">96.6</text><text x="820" y="6996" class="mono green as">MAX</text><text x="820" y="7036" class="sans fg am">141.4 FPS</text><text x="1040" y="6996" class="mono green as">MIN</text><text x="1040" y="7036" class="sans fg am">96.0 FPS</text><rect x="136" y="7100" width="1168" height="860" rx="16" fill="#010101" stroke="#454545" stroke-width="2.3"/><text x="160" y="7140" class="sans fg as">FPS (Calculated)</text><line x1="192" y1="7246" x2="1266" y2="7246" stroke="#181818"/><line x1="192" y1="7322" x2="1266" y2="7322" stroke="#181818"/><line x1="192" y1="7398" x2="1266" y2="7398" stroke="#181818"/><line x1="192" y1="7474" x2="1266" y2="7474" stroke="#181818"/><line x1="192" y1="7550" x2="1266" y2="7550" stroke="#181818"/><line x1="192" y1="7626" x2="1266" y2="7626" stroke="#181818"/><line x1="192" y1="7702" x2="1266" y2="7702" stroke="#181818"/><line x1="192" y1="7778" x2="1266" y2="7778" stroke="#181818"/><line x1="192" y1="7854" x2="1266" y2="7854" stroke="#181818"/><line x1="276" y1="7170" x2="276" y2="7940" stroke="#151515"/><line x1="360" y1="7170" x2="360" y2="7940" stroke="#151515"/><line x1="444" y1="7170" x2="444" y2="7940" stroke="#151515"/><line x1="528" y1="7170" x2="528" y2="7940" stroke="#151515"/><line x1="612" y1="7170" x2="612" y2="7940" stroke="#151515"/><line x1="696" y1="7170" x2="696" y2="7940" stroke="#151515"/><line x1="780" y1="7170" x2="780" y2="7940" stroke="#151515"/><line x1="864" y1="7170" x2="864" y2="7940" stroke="#151515"/><line x1="948" y1="7170" x2="948" y2="7940" stroke="#151515"/><line x1="1032" y1="7170" x2="1032" y2="7940" stroke="#151515"/><line x1="1116" y1="7170" x2="1116" y2="7940" stroke="#151515"/><line x1="1200" y1="7170" x2="1200" y2="7940" stroke="#151515"/><line x1="192" y1="7460" x2="1266" y2="7460" stroke="#76B900" stroke-opacity=".55" stroke-width="3.4" stroke-dasharray="16 14"/><path d="M192,7350 L236,7390 L286,7365 L346,7455 L406,7415 L466,7510 L526,7400 L586,7470 L646,7375 L706,7450 L766,7495 L826,7350 L886,7510 L946,7455 L1006,7490 L1066,7440 L1126,7530 L1186,7420 L1266,7470" fill="none" stroke="#76B900" stroke-width="4.4" pathLength="1" stroke-dasharray="1" stroke-dashoffset="1"><animate attributeName="stroke-dashoffset" from="1" to="0" begin="71.16s" dur="4.06s" fill="freeze"/></path></g><g clip-path="url(#o7)"><rect x="112" y="8280" width="1216" height="500" rx="14" class="term"/><g transform="translate(112 8280)"><use href="#bar"/></g></g><rect x="174" y="8452" width="12" height="28" fill="#76B900" opacity="0"><animate attributeName="opacity" values="0;1;1;0" keyTimes="0;.1;.55;1" begin="78.16s" dur=".86s" repeatCount="indefinite"/></rect><line x1="112" y1="8980" x2="1328" y2="8980" class="rule"/><text x="112" y="9052" class="mono dim foot">PROFILE INTERFACE / WINDOWS TERMINAL / FRAMEVIEW VISUALIZATION / LIVE TELEMETRY</text><text x="1328" y="9052" class="mono dim foot" text-anchor="end">GITHUB.COM/STRECKERMX</text><text x="340" y="220" class="sans fg hero" clip-path="url(#t1)">Strecker</text><text x="340" y="305" class="mono muted sub" clip-path="url(#t2)">WINDOWS SOFTWARE / PERFORMANCE / AUTOMATION / LOCAL AI</text><text x="340" y="362" class="sans muted lead" clip-path="url(#t3)">Practical software. Measurable performance. Clear interfaces.</text><text x="340" y="452" class="mono cyan pr" clip-path="url(#t4)">❯ whoami</text><text x="372" y="500" class="mono muted code" clip-path="url(#t5)">developer building fast, practical desktop tools and technical workflows</text><text x="340" y="568" class="mono cyan pr" clip-path="url(#t6)">❯ status --current</text><text x="372" y="616" class="mono green code" clip-path="url(#t7)">building · measuring · refining · shipping</text><text x="142" y="958" class="mono green ps" clip-path="url(#t8)">PowerShell 7.6.5</text><text x="142" y="1014" class="mono cyan tt" clip-path="url(#t9)">01 / IDENTITY</text><text x="142" y="1072" class="sans pink th" clip-path="url(#t10)">What I build</text><text x="142" y="1126" class="sans muted body" clip-path="url(#t11)">Desktop software and workflows where performance, clarity, and repeatability matter.</text><text x="142" y="1226" class="mono cyan pr" clip-path="url(#t12)">❯ whoami</text><text x="174" y="1272" class="mono muted code" clip-path="url(#t13)">developer building fast, practical desktop tools</text><text x="142" y="1354" class="mono cyan pr" clip-path="url(#t14)">❯ priorities</text><text x="174" y="1400" class="mono muted code" clip-path="url(#t15)">predictable behavior · readable complexity · measurable results</text><text x="142" y="1560" class="mono dim ml" clip-path="url(#t16)">PRIMARY</text><text x="350" y="1560" class="mono fg mv" clip-path="url(#t17)">C# / .NET</text><text x="760" y="1560" class="mono dim ml" clip-path="url(#t18)">UI</text><text x="890" y="1560" class="mono fg mv" clip-path="url(#t19)">WPF / Windows</text><text x="142" y="1948" class="mono green ps" clip-path="url(#t20)">PowerShell 7.6.5</text><text x="142" y="2004" class="mono cyan tt" clip-path="url(#t21)">02 / FOCUS</text><text x="142" y="2062" class="sans pink th" clip-path="url(#t22)">Where I spend my time</text><text x="142" y="2116" class="sans muted body" clip-path="url(#t23)">The same themes keep showing up across the tools I build.</text><text x="142" y="2216" class="mono cyan pr" clip-path="url(#t24)">❯ performance</text><text x="174" y="2262" class="mono fg code" clip-path="url(#t25)">Benchmarking · telemetry · filtering · visualization</text><text x="174" y="2306" class="mono muted code" clip-path="url(#t26)">Turn noisy technical data into something you can inspect, compare, and trust.</text><text x="142" y="2414" class="mono cyan pr" clip-path="url(#t27)">❯ automation</text><text x="174" y="2460" class="mono fg code" clip-path="url(#t28)">Repeatable workflows instead of repeated effort</text><text x="174" y="2504" class="mono muted code" clip-path="url(#t29)">Scripts, CI, and practical AI tooling that remove friction from development.</text><text x="142" y="2612" class="mono cyan pr" clip-path="url(#t30)">❯ interface-design</text><text x="174" y="2658" class="mono fg code" clip-path="url(#t31)">Technical software should still feel polished</text><text x="174" y="2702" class="mono muted code" clip-path="url(#t32)">Information hierarchy and visual feedback are part of engineering.</text><text x="142" y="3148" class="mono green ps" clip-path="url(#t33)">PowerShell 7.6.5</text><text x="142" y="3204" class="mono cyan tt" clip-path="url(#t34)">03 / TOOLBOX</text><text x="142" y="3262" class="sans pink th" clip-path="url(#t35)">Tools I reach for</text><text x="142" y="3316" class="sans muted body" clip-path="url(#t36)">A compact stack for desktop work, automation, testing, and delivery.</text><text x="142" y="3465" class="mono dim ml" clip-path="url(#t37)">LANGUAGE</text><text x="410" y="3465" class="mono fg mv" clip-path="url(#t38)">C#</text><text x="142" y="3545" class="mono dim ml" clip-path="url(#t39)">RUNTIME</text><text x="410" y="3545" class="mono fg mv" clip-path="url(#t40)">.NET 10</text><text x="142" y="3625" class="mono dim ml" clip-path="url(#t41)">DESKTOP UI</text><text x="410" y="3625" class="mono fg mv" clip-path="url(#t42)">WPF</text><text x="142" y="3705" class="mono dim ml" clip-path="url(#t43)">AUTOMATION</text><text x="410" y="3705" class="mono fg mv" clip-path="url(#t44)">Python · PowerShell</text><text x="142" y="3785" class="mono dim ml" clip-path="url(#t45)">DELIVERY</text><text x="410" y="3785" class="mono fg mv" clip-path="url(#t46)">GitHub Actions · Releases</text><text x="142" y="3865" class="mono dim ml" clip-path="url(#t47)">AI WORKFLOWS</text><text x="410" y="3865" class="mono green mv" clip-path="url(#t48)">Local models · API-assisted development</text><text x="142" y="4278" class="mono green ps" clip-path="url(#t49)">PowerShell 7.6.5</text><text x="142" y="4334" class="mono cyan tt" clip-path="url(#t50)">04 / WORKFLOW</text><text x="142" y="4392" class="sans pink th" clip-path="url(#t51)">How I like to work</text><text x="142" y="4446" class="sans muted body" clip-path="url(#t52)">Small feedback loops, measurable results, and less ceremony.</text><text x="142" y="4570" class="mono cyan pr" clip-path="url(#t53)">01 inspect</text><text x="390" y="4570" class="mono muted code" clip-path="url(#t54)">understand the actual problem</text><text x="142" y="4660" class="mono cyan pr" clip-path="url(#t55)">02 build</text><text x="390" y="4660" class="mono muted code" clip-path="url(#t56)">prefer the simplest clear solution</text><text x="142" y="4750" class="mono cyan pr" clip-path="url(#t57)">03 measure</text><text x="390" y="4750" class="mono muted code" clip-path="url(#t58)">test performance, behavior, and UX</text><text x="142" y="4840" class="mono cyan pr" clip-path="url(#t59)">04 refine</text><text x="390" y="4840" class="mono muted code" clip-path="url(#t60)">remove friction and fragile edges</text><text x="142" y="5288" class="mono green ps" clip-path="url(#t61)">PowerShell 7.6.5</text><text x="142" y="5344" class="mono cyan tt" clip-path="url(#t62)">05 / LIVE PROJECT TELEMETRY</text><text x="142" y="5402" class="sans pink th" clip-path="url(#t63)">FrameView Analyzer</text><text x="142" y="5456" class="sans muted body" clip-path="url(#t64)">Real repository data, refreshed automatically by GitHub Actions.</text><text x="1298" y="5288" class="mono dim code" clip-path="url(#t65)" text-anchor="end">SYNC 2026-08-22 UTC</text><text x="142" y="5615" class="mono dim ml" clip-path="url(#t66)">LATEST RELEASE</text><text x="142" y="5670" class="mono fg mb" clip-path="url(#t67)">v2.3.0</text><text x="470" y="5615" class="mono dim ml" clip-path="url(#t68)">STARS</text><text x="470" y="5670" class="mono fg mb" clip-path="url(#t69)">2</text><text x="730" y="5615" class="mono dim ml" clip-path="url(#t70)">CI</text><text x="730" y="5670" class="mono green mb" clip-path="url(#t71)">PASSING</text><text x="1010" y="5615" class="mono dim ml" clip-path="url(#t72)">OPEN PRS</text><text x="1010" y="5670" class="mono fg mb" clip-path="url(#t73)">0</text><text x="142" y="5820" class="mono dim ml" clip-path="url(#t74)">PRIMARY LANGUAGE</text><text x="442" y="5820" class="mono fg mv" clip-path="url(#t75)">C#</text><text x="730" y="5820" class="mono dim ml" clip-path="url(#t76)">RELEASE DATE</text><text x="1030" y="5820" class="mono fg mv" clip-path="url(#t77)">2026-08-19</text><text x="142" y="5960" class="mono cyan pr" clip-path="url(#t78)">❯ git log -1 --oneline</text><text x="174" y="6012" class="mono fg code" clip-path="url(#t79)">ef584d9  Release FrameView Analyzer 2.3.0 (#27)</text><text x="174" y="6060" class="mono dim code" clip-path="url(#t80)">committed 2026-08-19</text><text x="142" y="6230" class="mono dim ml" clip-path="url(#t81)">STATUS</text><text x="390" y="6230" class="mono green mv" clip-path="url(#t82)">BUILDING · REFINING · RELEASING</text><text x="142" y="6330" class="sans muted body" clip-path="url(#t83)">Native Windows benchmark analysis for NVIDIA FrameView captures and NVIDIA App logs.</text><text x="142" y="8398" class="mono green ps" clip-path="url(#t84)">PowerShell 7.6.5</text><text x="142" y="8476" class="mono cyan pr" clip-path="url(#t85)">❯</text></svg>